<?xml version="1.0" encoding="UTF-8" standalone="no"?>
<!DOCTYPE svg PUBLIC "-//W3C//DTD SVG 1.1//EN" "http://www.w3.org/Graphics/SVG/1.1/DTD/svg11.dtd">
<!-- Generated by graphviz version 2.26.3 (20100126.1600)
 -->
<!-- Title: Classes Pages: 1 -->
<svg xmlns="http://www.w3.org/2000/svg" xmlns:xlink="http://www.w3.org/1999/xlink" width="1254pt" height="1129pt">
<g id="viewport" class="graph" transform="scale(1 1) rotate(0) translate(4 1125.4)">
<title>Classes</title>
<polygon fill="white" stroke="white" points="-4,5 -4,-1125.4 1251,-1125.4 1251,5 -4,5"/>
<!-- 09a15e9660c1ebc6f429d818825ce0c6 -->
<g id="node1" class="node"><title>09a15e9660c1ebc6f429d818825ce0c6</title>
<polygon fill="white" stroke="black" points="73,-999.175 1,-999.175 1,-963.175 73,-963.175 73,-999.175"/>
<text text-anchor="middle" x="37" y="-977.575" font-family="Times Roman,serif" font-size="14.00" fill="gray">stdClass</text>
</g>
<!-- d1e128a58fc0c164fde5e875df12535f -->
<g id="node2" class="node"><title>d1e128a58fc0c164fde5e875df12535f</title>
<a xlink:href="_lib_chCmsExposeRoutingTools.class.html" xlink:title="chCmsExposeRoutingTools" target="_top">
<polygon fill="white" stroke="black" points="345,-999.175 149,-999.175 149,-963.175 345,-963.175 345,-999.175"/>
<text text-anchor="middle" x="247" y="-977.575" font-family="Times Roman,serif" font-size="14.00">chCmsExposeRoutingTools</text>
</a>
</g>
<!-- d1e128a58fc0c164fde5e875df12535f&#45;&gt;09a15e9660c1ebc6f429d818825ce0c6 -->
<g id="edge2" class="edge"><title>d1e128a58fc0c164fde5e875df12535f-&gt;09a15e9660c1ebc6f429d818825ce0c6</title>
<path fill="none" stroke="black" d="M148.234,-969.702C135.192,-971.433 122.409,-974.971 111,-981.175"/>
</g>
<!-- d1457b72c3fb323a2671125aef3eab5d -->
<g id="node3" class="node"><title>d1457b72c3fb323a2671125aef3eab5d</title>
<polygon fill="white" stroke="black" points="274,-579.175 220,-579.175 220,-543.175 274,-543.175 274,-579.175"/>
<text text-anchor="middle" x="247" y="-557.575" font-family="Times Roman,serif" font-size="14.00" fill="gray">?</text>
</g>
<!-- d1457b72c3fb323a2671125aef3eab5d&#45;&gt;09a15e9660c1ebc6f429d818825ce0c6 -->
<g id="edge4" class="edge"><title>d1457b72c3fb323a2671125aef3eab5d-&gt;09a15e9660c1ebc6f429d818825ce0c6</title>
<path fill="none" stroke="black" d="M244.395,-579.282C233.127,-654.534 185.74,-940.534 111,-981.175"/>
<path fill="none" stroke="black" d="M111,-981.175C102.794,-985.637 93.2811,-987.565 83.8647,-988.037"/>
<polygon fill="none" stroke="black" points="83.7538,-984.537 73.7514,-988.031 83.749,-991.537 83.7538,-984.537"/>
</g>
<!-- ac1fee811562bf1966fdc2c308857c1d -->
<g id="node4" class="node"><title>ac1fee811562bf1966fdc2c308857c1d</title>
<polygon fill="white" stroke="black" points="584,-579.175 420,-579.175 420,-543.175 584,-543.175 584,-579.175"/>
<text text-anchor="middle" x="502" y="-557.575" font-family="Times Roman,serif" font-size="14.00" fill="gray">sfPluginConfiguration</text>
</g>
<!-- ac1fee811562bf1966fdc2c308857c1d&#45;&gt;d1457b72c3fb323a2671125aef3eab5d -->
<g id="edge6" class="edge"><title>ac1fee811562bf1966fdc2c308857c1d-&gt;d1457b72c3fb323a2671125aef3eab5d</title>
<path fill="none" stroke="black" d="M419.931,-550.023C406.953,-551.339 394.153,-554.668 383,-561.175"/>
</g>
<!-- 491e8f96dbcaa1543ce9de768c65c475 -->
<g id="node5" class="node"><title>491e8f96dbcaa1543ce9de768c65c475</title>
<a xlink:href="_config_chCmsExposeRoutingPluginConfiguration.class.html" xlink:title="chCmsExposeRoutingPluginConfiguration" target="_top">
<polygon fill="white" stroke="black" points="958,-579.175 658,-579.175 658,-543.175 958,-543.175 958,-579.175"/>
<text text-anchor="middle" x="808" y="-557.575" font-family="Times Roman,serif" font-size="14.00">chCmsExposeRoutingPluginConfiguration</text>
</a>
</g>
<!-- 491e8f96dbcaa1543ce9de768c65c475&#45;&gt;ac1fee811562bf1966fdc2c308857c1d -->
<g id="edge8" class="edge"><title>491e8f96dbcaa1543ce9de768c65c475-&gt;ac1fee811562bf1966fdc2c308857c1d</title>
<path fill="none" stroke="black" d="M657.689,-561.175C635.967,-561.175 614.173,-561.175 594.058,-561.175"/>
<polygon fill="none" stroke="black" points="594.015,-557.675 584.015,-561.175 594.015,-564.675 594.015,-557.675"/>
</g>
<!-- 42946c1d68d250ff5612babb3f722280 -->
<g id="node6" class="node"><title>42946c1d68d250ff5612babb3f722280</title>
<polygon fill="white" stroke="black" points="541,-158.175 463,-158.175 463,-122.175 541,-122.175 541,-158.175"/>
<text text-anchor="middle" x="502" y="-136.575" font-family="Times Roman,serif" font-size="14.00" fill="gray">sfActions</text>
</g>
<!-- 42946c1d68d250ff5612babb3f722280&#45;&gt;d1457b72c3fb323a2671125aef3eab5d -->
<g id="edge10" class="edge"><title>42946c1d68d250ff5612babb3f722280-&gt;d1457b72c3fb323a2671125aef3eab5d</title>
<path fill="none" stroke="black" d="M500.114,-158.232C491.833,-233.292 455.822,-518.69 383,-561.175"/>
<path fill="none" stroke="black" d="M383,-561.175C353.212,-578.554 313.143,-576.101 284.221,-570.79"/>
<polygon fill="none" stroke="black" points="284.607,-567.297 274.11,-568.735 283.213,-574.157 284.607,-567.297"/>
</g>
<!-- a23ee562e92c783e461f13da8a58d250 -->
<g id="node7" class="node"><title>a23ee562e92c783e461f13da8a58d250</title>
<a xlink:href="_modules_chCmsExposeRouting_lib_BasechCmsExposeRoutingActions.class.html" xlink:title="BasechCmsExposeRoutingActions" target="_top">
<polygon fill="white" stroke="black" points="931,-158.175 685,-158.175 685,-122.175 931,-122.175 931,-158.175"/>
<text text-anchor="middle" x="808" y="-136.575" font-family="Times Roman,serif" font-size="14.00">BasechCmsExposeRoutingActions</text>
</a>
</g>
<!-- a23ee562e92c783e461f13da8a58d250&#45;&gt;42946c1d68d250ff5612babb3f722280 -->
<g id="edge12" class="edge"><title>a23ee562e92c783e461f13da8a58d250-&gt;42946c1d68d250ff5612babb3f722280</title>
<path fill="none" stroke="black" d="M684.42,-140.175C637.771,-140.175 587.329,-140.175 551.337,-140.175"/>
<polygon fill="none" stroke="black" points="551.118,-136.675 541.118,-140.175 551.118,-143.675 551.118,-136.675"/>
</g>
<!-- 7558e67c84e540eb904469099b644341 -->
<g id="node8" class="node"><title>7558e67c84e540eb904469099b644341</title>
<a xlink:href="_modules_chCmsExposeRouting_actions_actions.class.html" xlink:title="chCmsExposeRoutingActions" target="_top">
<polygon fill="white" stroke="black" points="1246,-158.175 1032,-158.175 1032,-122.175 1246,-122.175 1246,-158.175"/>
<text text-anchor="middle" x="1139" y="-136.575" font-family="Times Roman,serif" font-size="14.00">chCmsExposeRoutingActions</text>
</a>
</g>
<!-- 7558e67c84e540eb904469099b644341&#45;&gt;a23ee562e92c783e461f13da8a58d250 -->
<g id="edge14" class="edge"><title>7558e67c84e540eb904469099b644341-&gt;a23ee562e92c783e461f13da8a58d250</title>
<path fill="none" stroke="black" d="M1031.99,-140.175C1003.23,-140.175 971.759,-140.175 941.739,-140.175"/>
<polygon fill="none" stroke="black" points="941.619,-136.675 931.619,-140.175 941.619,-143.675 941.619,-136.675"/>
</g>
</g>
<script xlink:href="js/SVGPan.js"/></svg>
