<?xml version="1.0" encoding="UTF-8" standalone="no"?>
<!DOCTYPE svg PUBLIC "-//W3C//DTD SVG 1.1//EN" "http://www.w3.org/Graphics/SVG/1.1/DTD/svg11.dtd">
<!-- Generated by graphviz version 2.26.3 (20100126.1600)
 -->
<!-- Title: Classes Pages: 1 -->
<svg xmlns="http://www.w3.org/2000/svg" xmlns:xlink="http://www.w3.org/1999/xlink" width="1110pt" height="1000pt">
<g id="viewport" class="graph" transform="scale(1 1) rotate(0) translate(4 995.8)">
<title>Classes</title>
<polygon fill="white" stroke="white" points="-4,5 -4,-995.8 1107,-995.8 1107,5 -4,5"/>
<!-- 09a15e9660c1ebc6f429d818825ce0c6 -->
<g id="node1" class="node"><title>09a15e9660c1ebc6f429d818825ce0c6</title>
<polygon fill="white" stroke="black" points="73,-811.36 1,-811.36 1,-775.36 73,-775.36 73,-811.36"/>
<text text-anchor="middle" x="37" y="-789.76" font-family="Times Roman,serif" font-size="14.00" fill="gray">stdClass</text>
</g>
<!-- d1457b72c3fb323a2671125aef3eab5d -->
<g id="node2" class="node"><title>d1457b72c3fb323a2671125aef3eab5d</title>
<polygon fill="white" stroke="black" points="202,-811.36 148,-811.36 148,-775.36 202,-775.36 202,-811.36"/>
<text text-anchor="middle" x="175" y="-789.76" font-family="Times Roman,serif" font-size="14.00" fill="gray">?</text>
</g>
<!-- d1457b72c3fb323a2671125aef3eab5d&#45;&gt;09a15e9660c1ebc6f429d818825ce0c6 -->
<g id="edge2" class="edge"><title>d1457b72c3fb323a2671125aef3eab5d-&gt;09a15e9660c1ebc6f429d818825ce0c6</title>
<path fill="none" stroke="black" d="M147.736,-793.36C129.51,-793.36 105.061,-793.36 83.7721,-793.36"/>
<polygon fill="none" stroke="black" points="83.6164,-789.86 73.6163,-793.36 83.6163,-796.86 83.6164,-789.86"/>
</g>
<!-- ac1fee811562bf1966fdc2c308857c1d -->
<g id="node3" class="node"><title>ac1fee811562bf1966fdc2c308857c1d</title>
<polygon fill="white" stroke="black" points="440,-811.36 276,-811.36 276,-775.36 440,-775.36 440,-811.36"/>
<text text-anchor="middle" x="358" y="-789.76" font-family="Times Roman,serif" font-size="14.00" fill="gray">sfPluginConfiguration</text>
</g>
<!-- ac1fee811562bf1966fdc2c308857c1d&#45;&gt;d1457b72c3fb323a2671125aef3eab5d -->
<g id="edge4" class="edge"><title>ac1fee811562bf1966fdc2c308857c1d-&gt;d1457b72c3fb323a2671125aef3eab5d</title>
<path fill="none" stroke="black" d="M275.76,-780.884C262.659,-782.299 249.863,-786.005 239,-793.36"/>
</g>
<!-- 491e8f96dbcaa1543ce9de768c65c475 -->
<g id="node4" class="node"><title>491e8f96dbcaa1543ce9de768c65c475</title>
<a xlink:href="_config_chCmsExposeRoutingPluginConfiguration.class.html" xlink:title="chCmsExposeRoutingPluginConfiguration" target="_top">
<polygon fill="white" stroke="black" points="814,-811.36 514,-811.36 514,-775.36 814,-775.36 814,-811.36"/>
<text text-anchor="middle" x="664" y="-789.76" font-family="Times Roman,serif" font-size="14.00">chCmsExposeRoutingPluginConfiguration</text>
</a>
</g>
<!-- 491e8f96dbcaa1543ce9de768c65c475&#45;&gt;ac1fee811562bf1966fdc2c308857c1d -->
<g id="edge6" class="edge"><title>491e8f96dbcaa1543ce9de768c65c475-&gt;ac1fee811562bf1966fdc2c308857c1d</title>
<path fill="none" stroke="black" d="M513.689,-793.36C491.967,-793.36 470.173,-793.36 450.058,-793.36"/>
<polygon fill="none" stroke="black" points="450.015,-789.86 440.015,-793.36 450.015,-796.86 450.015,-789.86"/>
</g>
<!-- 42946c1d68d250ff5612babb3f722280 -->
<g id="node5" class="node"><title>42946c1d68d250ff5612babb3f722280</title>
<polygon fill="white" stroke="black" points="397,-216.36 319,-216.36 319,-180.36 397,-180.36 397,-216.36"/>
<text text-anchor="middle" x="358" y="-194.76" font-family="Times Roman,serif" font-size="14.00" fill="gray">sfActions</text>
</g>
<!-- 42946c1d68d250ff5612babb3f722280&#45;&gt;d1457b72c3fb323a2671125aef3eab5d -->
<g id="edge8" class="edge"><title>42946c1d68d250ff5612babb3f722280-&gt;d1457b72c3fb323a2671125aef3eab5d</title>
<path fill="none" stroke="black" d="M357.585,-216.648C355.035,-309.426 338.118,-726.254 239,-793.36"/>
<path fill="none" stroke="black" d="M239,-793.36C231.23,-798.621 221.621,-800.411 212.232,-800.447"/>
<polygon fill="none" stroke="black" points="212.411,-796.951 202.229,-799.879 212.015,-803.94 212.411,-796.951"/>
</g>
<!-- a23ee562e92c783e461f13da8a58d250 -->
<g id="node6" class="node"><title>a23ee562e92c783e461f13da8a58d250</title>
<a xlink:href="_modules_chCmsExposeRouting_lib_BasechCmsExposeRoutingActions.class.html" xlink:title="BasechCmsExposeRoutingActions" target="_top">
<polygon fill="white" stroke="black" points="787,-216.36 541,-216.36 541,-180.36 787,-180.36 787,-216.36"/>
<text text-anchor="middle" x="664" y="-194.76" font-family="Times Roman,serif" font-size="14.00">BasechCmsExposeRoutingActions</text>
</a>
</g>
<!-- a23ee562e92c783e461f13da8a58d250&#45;&gt;42946c1d68d250ff5612babb3f722280 -->
<g id="edge10" class="edge"><title>a23ee562e92c783e461f13da8a58d250-&gt;42946c1d68d250ff5612babb3f722280</title>
<path fill="none" stroke="black" d="M540.42,-198.36C493.771,-198.36 443.329,-198.36 407.337,-198.36"/>
<polygon fill="none" stroke="black" points="407.118,-194.86 397.118,-198.36 407.118,-201.86 407.118,-194.86"/>
</g>
<!-- 7558e67c84e540eb904469099b644341 -->
<g id="node7" class="node"><title>7558e67c84e540eb904469099b644341</title>
<a xlink:href="_modules_chCmsExposeRouting_actions_actions.class.html" xlink:title="chCmsExposeRoutingActions" target="_top">
<polygon fill="white" stroke="black" points="1102,-216.36 888,-216.36 888,-180.36 1102,-180.36 1102,-216.36"/>
<text text-anchor="middle" x="995" y="-194.76" font-family="Times Roman,serif" font-size="14.00">chCmsExposeRoutingActions</text>
</a>
</g>
<!-- 7558e67c84e540eb904469099b644341&#45;&gt;a23ee562e92c783e461f13da8a58d250 -->
<g id="edge12" class="edge"><title>7558e67c84e540eb904469099b644341-&gt;a23ee562e92c783e461f13da8a58d250</title>
<path fill="none" stroke="black" d="M887.991,-198.36C859.227,-198.36 827.759,-198.36 797.739,-198.36"/>
<polygon fill="none" stroke="black" points="797.619,-194.86 787.619,-198.36 797.619,-201.86 797.619,-194.86"/>
</g>
</g>
<script xlink:href="js/SVGPan.js"/></svg>
